<svg width="55" height="55" viewBox="0 0 55 55" fill="none" xmlns="http://www.w3.org/2000/svg">
<g clip-path="url(#clip0_374_339)">
<path d="M52.7083 25.2083H43.3583C43.1798 23.9457 42.8497 22.7092 42.3752 21.5256L50.4579 16.8415C50.7281 16.6961 50.9662 16.498 51.1584 16.2588C51.3505 16.0197 51.4927 15.7444 51.5765 15.4493C51.6603 15.1542 51.6839 14.8453 51.6461 14.5409C51.6083 14.2364 51.5097 13.9427 51.3563 13.6771C51.2028 13.4115 50.9976 13.1794 50.7528 12.9945C50.508 12.8097 50.2285 12.6759 49.931 12.601C49.6335 12.5262 49.324 12.5118 49.0209 12.5588C48.7178 12.6058 48.4271 12.7132 48.1663 12.8746L40.0767 17.5656C39.3033 16.5887 38.4198 15.7044 37.4435 14.9302L42.1323 6.83833C42.4146 6.31366 42.4815 5.69965 42.3188 5.12648C42.1561 4.55332 41.7766 4.06606 41.2606 3.76801C40.7447 3.46997 40.133 3.38457 39.5552 3.52993C38.9774 3.67529 38.4789 4.03998 38.1654 4.54667L33.4744 12.6248C32.2909 12.1498 31.0544 11.8197 29.7917 11.6417V2.29167C29.7917 1.68388 29.5502 1.10098 29.1205 0.671214C28.6907 0.241443 28.1078 0 27.5 0C26.8922 0 26.3093 0.241443 25.8795 0.671214C25.4498 1.10098 25.2083 1.68388 25.2083 2.29167V11.6417C23.9456 11.8197 22.7091 12.1498 21.5256 12.6248L16.8415 4.54208C16.528 4.03539 16.0295 3.67071 15.4517 3.52535C14.8739 3.37999 14.2622 3.46538 13.7462 3.76343C13.2303 4.06147 12.8508 4.54873 12.6881 5.1219C12.5253 5.69507 12.5922 6.30908 12.8746 6.83375L17.5633 14.9302C16.5871 15.7044 15.7035 16.5887 14.9302 17.5656L6.84062 12.8746C6.57975 12.7132 6.28913 12.6058 5.98598 12.5588C5.68284 12.5118 5.37335 12.5262 5.07585 12.601C4.77836 12.6759 4.49892 12.8097 4.25409 12.9945C4.00927 13.1794 3.80405 13.4115 3.6506 13.6771C3.49715 13.9427 3.39859 14.2364 3.36076 14.5409C3.32294 14.8453 3.34661 15.1542 3.43039 15.4493C3.51417 15.7444 3.65635 16.0197 3.84849 16.2588C4.04063 16.498 4.27883 16.6961 4.54896 16.8415L12.6248 21.5256C12.1503 22.7092 11.8202 23.9457 11.6417 25.2083H2.29167C1.68388 25.2083 1.10098 25.4498 0.671214 25.8795C0.241443 26.3093 0 26.8922 0 27.5C0 28.1078 0.241443 28.6907 0.671214 29.1205C1.10098 29.5502 1.68388 29.7917 2.29167 29.7917H11.6417C11.8202 31.0543 12.1503 32.2908 12.6248 33.4744L4.54208 38.1585C4.27195 38.3039 4.03375 38.502 3.84161 38.7412C3.64947 38.9803 3.5073 39.2556 3.42352 39.5507C3.33974 39.8458 3.31606 40.1547 3.35389 40.4591C3.39171 40.7636 3.49027 41.0573 3.64372 41.3229C3.79718 41.5885 4.0024 41.8206 4.24722 42.0055C4.49204 42.1903 4.77148 42.3241 5.06898 42.399C5.36647 42.4738 5.67596 42.4882 5.97911 42.4412C6.28225 42.3942 6.57287 42.2868 6.83375 42.1254L14.9233 37.4344C15.6967 38.4113 16.5802 39.2956 17.5565 40.0698L12.8746 48.1617C12.5922 48.6863 12.5253 49.3004 12.6881 49.8735C12.8508 50.4467 13.2303 50.9339 13.7462 51.232C14.2622 51.53 14.8739 51.6154 15.4517 51.4701C16.0295 51.3247 16.528 50.96 16.8415 50.4533L21.5256 42.3706C22.7092 42.8462 23.9456 43.1778 25.2083 43.3583V52.7083C25.2083 53.3161 25.4498 53.899 25.8795 54.3288C26.3093 54.7586 26.8922 55 27.5 55C28.1078 55 28.6907 54.7586 29.1205 54.3288C29.5502 53.899 29.7917 53.3161 29.7917 52.7083V43.3583C31.0542 43.1793 32.2906 42.8492 33.4744 42.3752L38.1585 50.4579C38.472 50.9646 38.9705 51.3293 39.5483 51.4747C40.1261 51.62 40.7378 51.5346 41.2538 51.2366C41.7697 50.9385 42.1492 50.4513 42.312 49.8781C42.4747 49.3049 42.4078 48.6909 42.1254 48.1663L37.4367 40.0744C38.4129 39.3002 39.2965 38.4159 40.0698 37.439L48.1594 42.13C48.4203 42.2914 48.7109 42.3988 49.014 42.4458C49.3172 42.4928 49.6267 42.4784 49.9242 42.4036C50.2216 42.3287 50.5011 42.1949 50.7459 42.0101C50.9907 41.8252 51.196 41.5931 51.3494 41.3275C51.5029 41.0619 51.6014 40.7681 51.6392 40.4637C51.6771 40.1593 51.6534 39.8504 51.5696 39.5553C51.4858 39.2602 51.3437 38.9849 51.1515 38.7458C50.9594 38.5066 50.7212 38.3085 50.451 38.1631L42.3683 33.479C42.8455 32.2942 43.1779 31.0561 43.3583 29.7917H52.7083C53.3161 29.7917 53.899 29.5502 54.3288 29.1205C54.7586 28.6907 55 28.1078 55 27.5C55 26.8922 54.7586 26.3093 54.3288 25.8795C53.899 25.4498 53.3161 25.2083 52.7083 25.2083ZM27.5 38.9583C12.3567 38.4771 12.3613 16.5206 27.5 16.0417C42.6433 16.5229 42.6388 38.4794 27.5 38.9583Z" fill="#FFCC00"/>
</g>
<defs>
<clipPath id="clip0_374_339">
<rect width="55" height="55" fill="white"/>
</clipPath>
</defs>
</svg>
