<svg width="55" height="55" viewBox="0 0 55 55" fill="none" xmlns="http://www.w3.org/2000/svg">
<g clip-path="url(#clip0_374_341)">
<path d="M0.00477427 27.5C0.00477427 26.8922 0.246217 26.3093 0.675988 25.8795C1.10576 25.4498 1.68865 25.2083 2.29644 25.2083H11.6441C11.8253 23.9502 12.1593 22.7189 12.6387 21.5417L4.54686 16.8415C4.27673 16.6961 4.03853 16.498 3.84639 16.2588C3.65425 16.0197 3.51207 15.7444 3.42829 15.4493C3.34451 15.1542 3.32084 14.8453 3.35866 14.5409C3.39649 14.2364 3.49505 13.9427 3.6485 13.6771C3.80195 13.4115 4.00717 13.1794 4.25199 12.9945C4.49681 12.8097 4.77626 12.6759 5.07375 12.601C5.37125 12.5262 5.68074 12.5118 5.98388 12.5588C6.28702 12.6058 6.57765 12.7132 6.83852 12.8746L14.9396 17.5679C15.7153 16.5951 16.6004 15.7146 17.5773 14.944L12.8794 6.83833C12.597 6.31366 12.5301 5.69965 12.6928 5.12648C12.8555 4.55332 13.2351 4.06606 13.751 3.76801C14.2669 3.46997 14.8786 3.38457 15.4565 3.52993C16.0343 3.67529 16.5328 4.03998 16.8462 4.54667L21.5464 12.634C22.7243 12.1571 23.9555 11.8239 25.2131 11.6417V2.29167C25.2131 1.68388 25.4546 1.10098 25.8843 0.671214C26.3141 0.241443 26.897 0 27.5048 0C28.1126 0 28.6955 0.241443 29.1252 0.671214C29.555 1.10098 29.7964 1.68388 29.7964 2.29167V11.6417C31.0541 11.8239 32.2852 12.1571 33.4631 12.634L38.1542 4.53979C38.4676 4.0331 38.9661 3.66842 39.5439 3.52306C40.1217 3.3777 40.7335 3.46309 41.2494 3.76114C41.7653 4.05918 42.1448 4.54644 42.3076 5.11961C42.4703 5.69278 42.4034 6.30679 42.121 6.83146L37.4231 14.9348C38.3996 15.7058 39.2853 16.5854 40.0631 17.5565L48.155 12.8654C48.6797 12.5831 49.2937 12.5162 49.8668 12.6789C50.44 12.8416 50.9273 13.2212 51.2253 13.7371C51.5234 14.253 51.6087 14.8647 51.4634 15.4425C51.318 16.0203 50.9533 16.5188 50.4467 16.8323L42.3777 21.5279C42.8624 22.7156 43.2017 23.9575 43.3883 25.2267L52.7131 25.2083C53.3209 25.2083 53.9038 25.4498 54.3336 25.8795C54.7633 26.3093 55.0048 26.8922 55.0048 27.5C55.0048 28.1078 54.7633 28.6907 54.3336 29.1205C53.9038 29.5502 53.3209 29.7917 52.7131 29.7917H43.3677C42.2696 29.7878 41.2095 29.3899 40.3801 28.6703C39.5507 27.9506 39.0072 26.9572 38.8485 25.8706C38.4292 23.1629 37.0552 20.6945 34.9748 18.9115C32.8944 17.1284 30.2447 16.1483 27.5048 16.1483C24.7648 16.1483 22.1152 17.1284 20.0348 18.9115C17.9543 20.6945 16.5803 23.1629 16.161 25.8706C16.0024 26.9568 15.4593 27.9499 14.6304 28.6695C13.8014 29.3891 12.7418 29.7873 11.6441 29.7917H2.29644C1.68865 29.7917 1.10576 29.5502 0.675988 29.1205C0.246217 28.6907 0.00477427 28.1078 0.00477427 27.5ZM54.4181 37.9615C54.0121 37.5093 53.4431 37.237 52.8363 37.2043C52.2294 37.1717 51.6345 37.3814 51.1823 37.7873C50.5784 38.2701 49.8723 38.6086 49.1177 38.7768C48.3631 38.945 47.58 38.9385 46.8283 38.7579C46.0765 38.5773 45.376 38.2272 44.7802 37.7345C44.1845 37.2418 43.7091 36.6195 43.3906 35.915C43.2835 35.5913 43.104 35.2964 42.8658 35.0525C42.6275 34.8087 42.3367 34.6224 42.0156 34.5079C41.4431 34.3061 40.8138 34.3397 40.266 34.6013C39.7182 34.863 39.2966 35.3313 39.0937 35.9035C38.6688 36.7979 37.9992 37.5535 37.1626 38.083C36.3259 38.6125 35.3563 38.8942 34.3662 38.8954C33.3761 38.8966 32.4058 38.6173 31.5679 38.0898C30.7299 37.5623 30.0585 36.8083 29.6314 35.915C29.5241 35.5912 29.3445 35.2961 29.1063 35.052C28.8681 34.8078 28.5775 34.621 28.2564 34.5056C27.9727 34.4054 27.6719 34.362 27.3713 34.378C27.0708 34.394 26.7764 34.4691 26.5048 34.5989C26.2333 34.7287 25.99 34.9107 25.7888 35.1346C25.5876 35.3584 25.4325 35.6197 25.3323 35.9035C24.9071 36.7972 24.2376 37.5523 23.4011 38.0813C22.5647 38.6104 21.5956 38.8918 20.6059 38.893C19.6162 38.8942 18.6464 38.6151 17.8087 38.0881C16.971 37.5611 16.2996 36.8077 15.8723 35.915C15.7649 35.5912 15.5853 35.2961 15.3471 35.052C15.1089 34.8078 14.8183 34.621 14.4973 34.5056C14.2135 34.4054 13.9127 34.362 13.6122 34.378C13.3116 34.394 13.0172 34.4691 12.7456 34.5989C12.4741 34.7287 12.2308 34.9107 12.0296 35.1346C11.8284 35.3584 11.6733 35.6197 11.5731 35.9035C11.2597 36.6093 10.7884 37.2337 10.1956 37.7285C9.60268 38.2233 8.90406 38.5752 8.1536 38.7573C7.40314 38.9393 6.62089 38.9465 5.86721 38.7783C5.11352 38.6101 4.40854 38.2711 3.80665 37.7873C3.34752 37.4355 2.77236 37.2704 2.19654 37.325C1.62072 37.3795 1.08684 37.6499 0.702018 38.0817C0.317191 38.5135 0.10988 39.0748 0.121674 39.6531C0.133468 40.2314 0.363495 40.7838 0.765608 41.1996C2.59405 42.7694 4.94765 43.5912 7.35584 43.5007C9.76403 43.4102 12.0493 42.4141 13.7548 40.7115C15.5983 42.4963 18.0638 43.4942 20.6298 43.4942C23.1958 43.4942 25.6612 42.4963 27.5048 40.7115C29.3481 42.4968 31.8136 43.4951 34.3798 43.4951C36.946 43.4951 39.4115 42.4968 41.2548 40.7115C42.9599 42.4144 45.2451 43.411 47.6533 43.5019C50.0615 43.5928 52.4152 42.7714 54.2439 41.2019C54.4685 41.0008 54.6512 40.7573 54.7815 40.4855C54.9118 40.2137 54.9872 39.9188 55.0034 39.6178C55.0195 39.3168 54.9762 39.0155 54.8758 38.7313C54.7753 38.4471 54.6198 38.1855 54.4181 37.9615ZM54.4181 49.4198C54.0121 48.9677 53.4431 48.6953 52.8363 48.6627C52.2294 48.63 51.6345 48.8397 51.1823 49.2456C50.5784 49.7284 49.8723 50.0669 49.1177 50.2351C48.3631 50.4033 47.58 50.3969 46.8283 50.2162C46.0765 50.0356 45.376 49.6856 44.7802 49.1928C44.1845 48.7001 43.7091 48.0778 43.3906 47.3733C43.2835 47.0497 43.104 46.7547 42.8658 46.5109C42.6275 46.267 42.3367 46.0808 42.0156 45.9663C41.4431 45.7644 40.8138 45.798 40.266 46.0597C39.7182 46.3213 39.2966 46.7897 39.0937 47.3619C38.6677 48.2557 37.9972 49.0105 37.1599 49.539C36.3226 50.0675 35.3527 50.348 34.3626 50.348C33.3724 50.348 32.4026 50.0675 31.5652 49.539C30.7279 49.0105 30.0574 48.2557 29.6314 47.3619C29.5241 47.0381 29.3445 46.743 29.1063 46.4988C28.8681 46.2547 28.5775 46.0679 28.2564 45.9525C27.9727 45.8523 27.6719 45.8089 27.3713 45.8249C27.0708 45.8409 26.7764 45.916 26.5048 46.0458C26.2333 46.1756 25.99 46.3576 25.7888 46.5815C25.5876 46.8053 25.4325 47.0666 25.3323 47.3504C24.906 48.2436 24.2356 48.9978 23.3985 49.5259C22.5614 50.0539 21.592 50.3341 20.6023 50.3341C19.6126 50.3341 18.6431 50.0539 17.8061 49.5259C16.969 48.9978 16.2985 48.2436 15.8723 47.3504C15.7649 47.0267 15.5853 46.7315 15.3471 46.4874C15.1089 46.2432 14.8183 46.0564 14.4973 45.941C14.2135 45.8408 13.9127 45.7975 13.6122 45.8135C13.3116 45.8295 13.0172 45.9045 12.7456 46.0343C12.4741 46.1641 12.2308 46.3462 12.0296 46.57C11.8284 46.7939 11.6733 47.0552 11.5731 47.339C11.2597 48.0447 10.7884 48.6691 10.1956 49.1639C9.60268 49.6587 8.90406 50.0107 8.1536 50.1927C7.40314 50.3747 6.62089 50.3819 5.86721 50.2137C5.11352 50.0456 4.40854 49.7065 3.80665 49.2227C3.35111 48.8194 2.75404 48.6137 2.14677 48.6506C1.5395 48.6876 0.971791 48.9643 0.568524 49.4198C0.165257 49.8753 -0.040532 50.4724 -0.00357171 51.0797C0.0333886 51.6869 0.310071 52.2547 0.765608 52.6579C2.59405 54.2277 4.94765 55.0496 7.35584 54.9591C9.76403 54.8686 12.0493 53.8724 13.7548 52.1698C15.5983 53.9546 18.0638 54.9526 20.6298 54.9526C23.1958 54.9526 25.6612 53.9546 27.5048 52.1698C29.3481 53.9552 31.8136 54.9535 34.3798 54.9535C36.946 54.9535 39.4115 53.9552 41.2548 52.1698C42.9599 53.8727 45.2451 54.8693 47.6533 54.9602C50.0615 55.0512 52.4152 54.2297 54.2439 52.6602C54.4685 52.4591 54.6512 52.2157 54.7815 51.9438C54.9118 51.672 54.9872 51.3771 55.0034 51.0761C55.0195 50.7751 54.9762 50.4739 54.8758 50.1897C54.7753 49.9054 54.6198 49.6438 54.4181 49.4198Z" fill="#FFCC00"/>
</g>
<defs>
<clipPath id="clip0_374_341">
<rect width="55" height="55" fill="white"/>
</clipPath>
</defs>
</svg>
