<svg width="55" height="55" viewBox="0 0 55 55" fill="none" xmlns="http://www.w3.org/2000/svg">
<g clip-path="url(#clip0_374_343)">
<path d="M34.3693 55.0005C30.5181 54.9976 26.7104 54.1872 23.1918 52.6217C19.6732 51.0562 16.5219 48.7704 13.9413 45.9117C11.3413 43.0497 9.37957 39.6675 8.18637 35.9896C6.99317 32.3116 6.59576 28.4219 7.0205 24.5786C7.70526 18.5974 10.3145 13.0005 14.4555 8.63056C18.5965 4.26063 24.045 1.35418 29.9807 0.348817C33.8179 -0.243865 37.7338 -0.0843038 41.5101 0.818609C42.4989 1.07266 43.4019 1.58633 44.1256 2.30645C44.8492 3.02658 45.3674 3.92701 45.6263 4.91456C45.8852 5.90211 45.8755 6.94091 45.5983 7.92348C45.321 8.90604 44.7862 9.79666 44.0493 10.5032C33.5993 20.0503 34.5067 34.8957 45.8986 43.5261C46.7041 44.1583 47.3254 44.9948 47.6979 45.9486C48.0705 46.9024 48.1806 47.9385 48.0168 48.9493C47.853 49.9601 47.4213 50.9085 46.7667 51.6958C46.112 52.4831 45.2584 53.0806 44.2945 53.4261C41.0903 54.473 37.7401 55.0044 34.3693 55.0005V55.0005ZM34.5434 4.58382C33.2568 4.58072 31.9718 4.67803 30.7003 4.87486C25.7584 5.71066 21.2216 8.12913 17.773 11.7662C14.3244 15.4033 12.1505 20.0622 11.5786 25.0415C11.2211 28.25 11.5506 31.4977 12.5451 34.569C13.5396 37.6403 15.1764 40.4648 17.3467 42.8547C20.5238 46.2456 24.6166 48.6416 29.1286 49.7521C33.6406 50.8627 38.378 50.6399 42.7659 49.1109C42.9551 49.04 43.1221 48.9204 43.2502 48.7642C43.3782 48.608 43.4627 48.4207 43.495 48.2213C43.5273 48.022 43.5064 47.8176 43.4343 47.6289C43.3622 47.4402 43.2415 47.274 43.0845 47.1469C29.4972 36.8849 28.4178 18.5332 40.912 7.15965C41.0553 7.02653 41.1587 6.85607 41.2106 6.66742C41.2624 6.47877 41.2605 6.27941 41.2053 6.09173C41.1577 5.89255 41.0565 5.71019 40.9127 5.56437C40.7689 5.41855 40.588 5.31483 40.3895 5.26444C38.4753 4.80273 36.5124 4.5742 34.5434 4.58382V4.58382Z" fill="#FFCC00"/>
</g>
<defs>
<clipPath id="clip0_374_343">
<rect width="55" height="55" fill="white"/>
</clipPath>
</defs>
</svg>
