<svg width="127" height="127" viewBox="0 0 127 127" fill="none" xmlns="http://www.w3.org/2000/svg">
<g clip-path="url(#clip0_374_345)">
<path d="M68.7918 5.28938C68.7918 3.88594 69.3493 2.53998 70.3417 1.5476C71.3341 0.555222 72.6801 -0.00229157 74.0835 -0.00229157C88.1131 0.0131156 101.564 5.5932 111.484 15.5137C121.405 25.4341 126.985 38.8847 127 52.9144C127 54.3178 126.443 55.6638 125.45 56.6562C124.458 57.6485 123.112 58.206 121.708 58.206C120.305 58.206 118.959 57.6485 117.967 56.6562C116.974 55.6638 116.417 54.3178 116.417 52.9144C116.404 41.6908 111.94 30.9304 104.004 22.9941C96.0674 15.0578 85.3071 10.5936 74.0835 10.581C72.6801 10.581 71.3341 10.0235 70.3417 9.03115C69.3493 8.03877 68.7918 6.69281 68.7918 5.28938V5.28938ZM74.0835 31.7477C79.6972 31.7477 85.081 33.9778 89.0506 37.9473C93.0201 41.9168 95.2501 47.3006 95.2501 52.9144C95.2501 54.3178 95.8076 55.6638 96.8 56.6562C97.7924 57.6485 99.1384 58.206 100.542 58.206C101.945 58.206 103.291 57.6485 104.284 56.6562C105.276 55.6638 105.833 54.3178 105.833 52.9144C105.825 44.4963 102.477 36.4255 96.5248 30.473C90.5724 24.5206 82.5015 21.1728 74.0835 21.1644C72.6801 21.1644 71.3341 21.7219 70.3417 22.7143C69.3493 23.7067 68.7918 25.0526 68.7918 26.456C68.7918 27.8595 69.3493 29.2054 70.3417 30.1978C71.3341 31.1902 72.6801 31.7477 74.0835 31.7477V31.7477ZM122.201 88.5749C125.267 91.65 126.989 95.8156 126.989 100.158C126.989 104.501 125.267 108.667 122.201 111.742L117.385 117.293C74.0465 158.785 -31.4163 53.3483 9.43528 9.87196L15.5207 4.58029C18.5992 1.59938 22.7276 -0.0496569 27.0126 -0.0100447C31.2976 0.0295675 35.3948 1.75464 38.4177 4.79196C38.5817 4.956 48.3872 17.693 48.3872 17.693C51.2967 20.7497 52.9163 24.81 52.9094 29.0299C52.9026 33.2499 51.2696 37.3049 48.3502 40.352L42.2224 48.0566C45.6136 56.2963 50.5994 63.7848 56.8936 70.0916C63.1877 76.3985 70.6661 81.3995 78.8989 84.8073L86.6512 78.6425C89.6987 75.7252 93.7529 74.0942 97.9716 74.0883C102.19 74.0824 106.249 75.702 109.305 78.6107C109.305 78.6107 122.037 88.4109 122.201 88.5749ZM114.919 96.269C114.919 96.269 102.256 86.527 102.092 86.363C101.002 85.2821 99.529 84.6756 97.9939 84.6756C96.4587 84.6756 94.9856 85.2821 93.8955 86.363C93.7526 86.5112 83.0793 95.0149 83.0793 95.0149C82.3601 95.5874 81.5041 95.9627 80.5957 96.1037C79.6873 96.2447 78.7578 96.1467 77.8988 95.8192C67.2332 91.8482 57.5457 85.6314 49.4923 77.5898C41.4389 69.5483 35.2078 59.8699 31.221 49.2102C30.8676 48.3395 30.7523 47.3903 30.8872 46.4603C31.022 45.5303 31.4021 44.653 31.9883 43.9185C31.9883 43.9185 40.492 33.24 40.6349 33.1024C41.7158 32.0122 42.3223 30.5392 42.3223 29.004C42.3223 27.4688 41.7158 25.9957 40.6349 24.9056C40.4709 24.7468 30.7289 12.0733 30.7289 12.0733C29.6224 11.0811 28.1784 10.5498 26.6927 10.5882C25.207 10.6265 23.7923 11.2317 22.7385 12.2797L16.6531 17.5713C-13.2024 53.47 78.1898 139.793 109.649 110.064L114.469 104.508C115.599 103.462 116.278 102.017 116.362 100.48C116.445 98.9421 115.928 97.4321 114.919 96.269V96.269Z" fill="#EEA3BC"/>
</g>
<defs>
<clipPath id="clip0_374_345">
<rect width="127" height="127" fill="white"/>
</clipPath>
</defs>
</svg>
