<svg width="46" height="46" viewBox="0 0 46 46" fill="none" xmlns="http://www.w3.org/2000/svg">
<g clip-path="url(#clip0_37_84)">
<path d="M23.0007 11.5C21.4843 11.5 20.0021 11.9496 18.7413 12.7921C17.4805 13.6345 16.4978 14.8319 15.9176 16.2328C15.3373 17.6337 15.1855 19.1752 15.4813 20.6624C15.7771 22.1495 16.5073 23.5156 17.5795 24.5878C18.6517 25.66 20.0178 26.3902 21.505 26.686C22.9922 26.9818 24.5337 26.83 25.9346 26.2497C27.3355 25.6695 28.5328 24.6868 29.3753 23.426C30.2177 22.1653 30.6673 20.683 30.6673 19.1667C30.6673 17.1333 29.8596 15.1833 28.4218 13.7455C26.984 12.3077 25.034 11.5 23.0007 11.5ZM23.0007 23C22.2425 23 21.5014 22.7752 20.871 22.354C20.2406 21.9328 19.7493 21.3341 19.4591 20.6336C19.169 19.9332 19.0931 19.1624 19.241 18.4188C19.3889 17.6752 19.754 16.9922 20.2901 16.4561C20.8262 15.92 21.5092 15.5549 22.2528 15.407C22.9964 15.2591 23.7672 15.335 24.4676 15.6251C25.1681 15.9153 25.7667 16.4066 26.188 17.037C26.6092 17.6674 26.834 18.4085 26.834 19.1667C26.834 20.1833 26.4301 21.1584 25.7112 21.8772C24.9923 22.5961 24.0173 23 23.0007 23Z" fill="white"/>
<path d="M23.0006 46.0009C21.3867 46.0092 19.7942 45.6306 18.3566 44.897C16.9191 44.1634 15.6782 43.096 14.7378 41.7842C7.43343 31.7083 3.72852 24.1337 3.72852 19.2692C3.72852 14.1579 5.75896 9.25595 9.37318 5.64173C12.9874 2.02752 17.8893 -0.00292969 23.0006 -0.00292969C28.1119 -0.00292969 33.0138 2.02752 36.628 5.64173C40.2422 9.25595 42.2727 14.1579 42.2727 19.2692C42.2727 24.1337 38.5678 31.7083 31.2634 41.7842C30.323 43.096 29.0821 44.1634 27.6446 44.897C26.207 45.6306 24.6145 46.0092 23.0006 46.0009ZM23.0006 4.18115C18.9994 4.18572 15.1634 5.77721 12.3341 8.60649C9.50482 11.4358 7.91333 15.2718 7.90876 19.273C7.90876 23.1255 11.537 30.2497 18.1227 39.3328C18.6818 40.1029 19.4152 40.7297 20.2631 41.1618C21.1109 41.594 22.049 41.8193 23.0006 41.8193C23.9522 41.8193 24.8903 41.594 25.7381 41.1618C26.586 40.7297 27.3194 40.1029 27.8785 39.3328C34.4642 30.2497 38.0924 23.1255 38.0924 19.273C38.0879 15.2718 36.4964 11.4358 33.6671 8.60649C30.8378 5.77721 27.0018 4.18572 23.0006 4.18115Z" fill="white"/>
</g>
<defs>
<clipPath id="clip0_37_84">
<rect width="46" height="46" fill="white"/>
</clipPath>
</defs>
</svg>
