<svg width="46" height="46" viewBox="0 0 46 46" fill="none" xmlns="http://www.w3.org/2000/svg">
<path d="M22.9995 0C10.2974 0 0 10.3354 0 23.0845C0 33.9102 7.42609 42.9944 17.4438 45.4894V30.1391H12.7013V23.0845H17.4438V20.0447C17.4438 12.1877 20.9866 8.54588 28.6721 8.54588C30.1294 8.54588 32.6437 8.83305 33.6722 9.1193V15.5137C33.1295 15.4564 32.1865 15.4278 31.0153 15.4278C27.2443 15.4278 25.7871 16.8618 25.7871 20.5895V23.0845H33.2997L32.0089 30.1391H25.7871V46C37.1755 44.6195 46 34.8871 46 23.0845C45.9991 10.3354 35.7017 0 22.9995 0Z" fill="white"/>
</svg>
